REM DIRINDEX 1\2\3,1\2\4,1\2\5,1\2\6
REM DIRNAME cjc157,folder01,folder02,folder03,folder04,folder05
TITLE ""
FILE "008 008.mp3" MP3
  TRACK 01 AUDIO
    TITLE "0:"
    INDEX 01 00:00:00
  TRACK 02 AUDIO
    TITLE "3:cjc157_0236"
    INDEX 01 00:00:11
  TRACK 03 AUDIO
    TITLE "0:"
    INDEX 01 00:01:64
  TRACK 04 AUDIO
    TITLE "4:cjc157_0237"
    INDEX 01 00:02:34
  TRACK 05 AUDIO
    TITLE "0:"
    INDEX 01 00:03:37
  TRACK 06 AUDIO
    TITLE "5:cjc157_0238"
    INDEX 01 00:04:11
  TRACK 07 AUDIO
    TITLE "0:"
    INDEX 01 00:06:30
  TRACK 08 AUDIO
    TITLE "5:cjc157_0239"
    INDEX 01 00:06:73
  TRACK 09 AUDIO
    TITLE "0:"
    INDEX 01 00:08:72
  TRACK 10 AUDIO
    TITLE "5:cjc157_0240"
    INDEX 01 00:09:40
  TRACK 11 AUDIO
    TITLE "0:"
    INDEX 01 00:11:01
  TRACK 12 AUDIO
    TITLE "5:cjc157_0241"
    INDEX 01 00:11:44
  TRACK 13 AUDIO
    TITLE "0:"
    INDEX 01 00:13:22
  TRACK 14 AUDIO
    TITLE "3:cjc157_0242"
    INDEX 01 00:13:63
  TRACK 15 AUDIO
    TITLE "0:"
    INDEX 01 00:15:11
  TRACK 16 AUDIO
    TITLE "4:cjc157_0243"
    INDEX 01 00:15:56
  TRACK 17 AUDIO
    TITLE "0:"
    INDEX 01 00:16:65
  TRACK 18 AUDIO
    TITLE "5:cjc157_0244"
    INDEX 01 00:17:37
  TRACK 19 AUDIO
    TITLE "0:"
    INDEX 01 00:20:04
  TRACK 20 AUDIO
    TITLE "5:cjc157_0245"
    INDEX 01 00:20:51
  TRACK 21 AUDIO
    TITLE "0:"
    INDEX 01 00:22:72
  TRACK 22 AUDIO
    TITLE "5:cjc157_0246"
    INDEX 01 00:23:42
  TRACK 23 AUDIO
    TITLE "0:"
    INDEX 01 00:25:33
  TRACK 24 AUDIO
    TITLE "3:cjc157_0247"
    INDEX 01 00:26:05
  TRACK 25 AUDIO
    TITLE "0:"
    INDEX 01 00:27:14
  TRACK 26 AUDIO
    TITLE "4:cjc157_0248"
    INDEX 01 00:27:59
  TRACK 27 AUDIO
    TITLE "0:"
    INDEX 01 00:28:74
  TRACK 28 AUDIO
    TITLE "5:cjc157_0249"
    INDEX 01 00:29:42
  TRACK 29 AUDIO
    TITLE "0:"
    INDEX 01 00:32:27
  TRACK 30 AUDIO
    TITLE "5:cjc157_0250"
    INDEX 01 00:32:72
  TRACK 31 AUDIO
    TITLE "0:"
    INDEX 01 00:34:73
  TRACK 32 AUDIO
    TITLE "3:cjc157_0251"
    INDEX 01 00:35:43
  TRACK 33 AUDIO
    TITLE "0:"
    INDEX 01 00:36:72
  TRACK 34 AUDIO
    TITLE "4:cjc157_0252"
    INDEX 01 00:37:44
  TRACK 35 AUDIO
    TITLE "0:"
    INDEX 01 00:38:55
  TRACK 36 AUDIO
    TITLE "5:cjc157_0253"
    INDEX 01 00:39:27
  TRACK 37 AUDIO
    TITLE "0:"
    INDEX 01 00:41:24
  TRACK 38 AUDIO
    TITLE "5:cjc157_0254"
    INDEX 01 00:41:73
  TRACK 39 AUDIO
    TITLE "0:"
    INDEX 01 00:44:18
  TRACK 40 AUDIO
    TITLE "3:cjc157_0255"
    INDEX 01 00:44:67
  TRACK 41 AUDIO
    TITLE "0:"
    INDEX 01 00:46:21
  TRACK 42 AUDIO
    TITLE "4:cjc157_0256"
    INDEX 01 00:46:68
  TRACK 43 AUDIO
    TITLE "0:"
    INDEX 01 00:47:72
  TRACK 44 AUDIO
    TITLE "5:cjc157_0257"
    INDEX 01 00:48:44
  TRACK 45 AUDIO
    TITLE "0:"
    INDEX 01 00:50:50
  TRACK 46 AUDIO
    TITLE "5:cjc157_0258"
    INDEX 01 00:51:16
  TRACK 47 AUDIO
    TITLE "0:"
    INDEX 01 00:53:06
  TRACK 48 AUDIO
    TITLE "3:cjc157_0259"
    INDEX 01 00:53:47
  TRACK 49 AUDIO
    TITLE "0:"
    INDEX 01 00:54:52
  TRACK 50 AUDIO
    TITLE "4:cjc157_0260"
    INDEX 01 00:55:24
  TRACK 51 AUDIO
    TITLE "0:"
    INDEX 01 00:56:43
  TRACK 52 AUDIO
    TITLE "5:cjc157_0261"
    INDEX 01 00:57:17
  TRACK 53 AUDIO
    TITLE "0:"
    INDEX 01 01:01:36
  TRACK 54 AUDIO
    TITLE "5:cjc157_0262"
    INDEX 01 01:02:03
  TRACK 55 AUDIO
    TITLE "0:"
    INDEX 01 01:05:54
  TRACK 56 AUDIO
    TITLE "5:cjc157_0263"
    INDEX 01 01:06:22
  TRACK 57 AUDIO
    TITLE "0:"
    INDEX 01 01:08:44
  TRACK 58 AUDIO
    TITLE "3:cjc157_0264"
    INDEX 01 01:09:16
  TRACK 59 AUDIO
    TITLE "0:"
    INDEX 01 01:10:26
  TRACK 60 AUDIO
    TITLE "4:cjc157_0265"
    INDEX 01 01:10:71
  TRACK 61 AUDIO
    TITLE "0:"
    INDEX 01 01:12:11
  TRACK 62 AUDIO
    TITLE "5:cjc157_0266"
    INDEX 01 01:12:54
  TRACK 63 AUDIO
    TITLE "0:"
    INDEX 01 01:14:31
  TRACK 64 AUDIO
    TITLE "5:cjc157_0267"
    INDEX 01 01:15:03
  TRACK 65 AUDIO
    TITLE "0:"
    INDEX 01 01:16:54
  TRACK 66 AUDIO
    TITLE "5:cjc157_0268"
    INDEX 01 01:17:24
  TRACK 67 AUDIO
    TITLE "0:"
    INDEX 01 01:18:74
  TRACK 68 AUDIO
    TITLE "3:cjc157_0269"
    INDEX 01 01:19:42
  TRACK 69 AUDIO
    TITLE "0:"
    INDEX 01 01:20:57
  TRACK 70 AUDIO
    TITLE "4:cjc157_0270"
    INDEX 01 01:21:25
  TRACK 71 AUDIO
    TITLE "0:"
    INDEX 01 01:22:46
  TRACK 72 AUDIO
    TITLE "5:cjc157_0271"
    INDEX 01 01:23:16
  TRACK 73 AUDIO
    TITLE "0:"
    INDEX 01 01:25:68
  TRACK 74 AUDIO
    TITLE "5:cjc157_0272"
    INDEX 01 01:26:34
  TRACK 75 AUDIO
    TITLE "0:"
    INDEX 01 01:29:21
  TRACK 76 AUDIO
    TITLE "3:cjc157_0273"
    INDEX 01 01:29:64
  TRACK 77 AUDIO
    TITLE "0:"
    INDEX 01 01:31:34
  TRACK 78 AUDIO
    TITLE "4:cjc157_0274"
    INDEX 01 01:32:02
  TRACK 79 AUDIO
    TITLE "0:"
    INDEX 01 01:33:15
  TRACK 80 AUDIO
    TITLE "5:cjc157_0275"
    INDEX 01 01:33:58
  TRACK 81 AUDIO
    TITLE "0:"
    INDEX 01 01:36:35
  TRACK 82 AUDIO
    TITLE "5:cjc157_0276"
    INDEX 01 01:37:07
  TRACK 83 AUDIO
    TITLE "0:"
    INDEX 01 01:38:57
  TRACK 84 AUDIO
    TITLE "5:cjc157_0277"
    INDEX 01 01:39:23
  TRACK 85 AUDIO
    TITLE "0:"
    INDEX 01 01:41:34
  TRACK 86 AUDIO
    TITLE "3:cjc157_0278"
    INDEX 01 01:42:16
  TRACK 87 AUDIO
    TITLE "0:"
    INDEX 01 01:43:60
  TRACK 88 AUDIO
    TITLE "4:cjc157_0279"
    INDEX 01 01:44:26
  TRACK 89 AUDIO
    TITLE "0:"
    INDEX 01 01:45:42
  TRACK 90 AUDIO
    TITLE "5:cjc157_0280"
    INDEX 01 01:46:12
  TRACK 91 AUDIO
    TITLE "0:"
    INDEX 01 01:48:54
